<svg width="1370" height="305" viewBox="0 0 1370 305" fill="none" xmlns="http://www.w3.org/2000/svg">
<rect width="278.545" height="88.5939" rx="44.297" transform="matrix(0.873657 -0.486543 0.513579 0.858042 0.5 135.524)" fill="#D95040"/>
<rect width="278.545" height="88.5939" rx="44.297" transform="matrix(0.873657 0.486543 -0.513579 0.858042 45.5 92.5294)" fill="#5186EC"/>
<rect width="278.545" height="88.5939" rx="44.297" transform="matrix(-0.873657 0.486543 -0.513579 -0.858042 616.206 168.618)" fill="#F2BD42"/>
<rect width="278.545" height="88.5939" rx="44.297" transform="matrix(-0.873657 -0.486543 0.513579 -0.858042 571.206 211.612)" fill="#479A5F"/>
<path d="M841.56 251.56C822.37 251.56 804.7 246.905 788.55 237.595C772.4 228.285 759.575 215.46 750.075 199.12C740.575 182.78 735.825 164.73 735.825 144.97C735.825 125.21 740.575 107.16 750.075 90.82C759.575 74.48 772.4 61.655 788.55 52.345C804.7 43.035 822.37 38.38 841.56 38.38C856.57 38.38 870.63 41.04 883.74 46.36C897.04 51.68 907.965 59.185 916.515 68.875L899.13 86.26C892.67 78.28 884.405 72.2 874.335 68.02C864.265 63.65 853.435 61.465 841.845 61.465C827.405 61.465 813.915 64.98 801.375 72.01C789.025 78.85 779.05 88.635 771.45 101.365C764.04 113.905 760.335 128.44 760.335 144.97C760.335 161.5 764.04 176.13 771.45 188.86C779.05 201.4 789.12 211.185 801.66 218.215C814.2 225.055 827.595 228.475 841.845 228.475C855.525 228.475 866.925 226.385 876.045 222.205C885.355 217.835 893.335 212.135 899.985 205.105C904.925 199.785 908.915 193.42 911.955 186.01C914.995 178.41 916.895 170.05 917.655 160.93H842.13V138.415H940.17C941.12 143.735 941.595 148.675 941.595 153.235C941.595 165.775 939.6 178.03 935.61 190C931.62 201.78 925.255 212.135 916.515 221.065C897.705 241.395 872.72 251.56 841.56 251.56Z" fill="#696969"/>
<path d="M975.361 42.94H1036.92C1057.82 42.94 1076.06 47.31 1091.64 56.05C1107.22 64.6 1119.19 76.57 1127.55 91.96C1135.91 107.35 1140.09 125.02 1140.09 144.97C1140.09 164.92 1135.91 182.59 1127.55 197.98C1119.19 213.37 1107.22 225.435 1091.64 234.175C1076.06 242.725 1057.82 247 1036.92 247H975.361V42.94ZM1036.92 223.915C1061.05 223.915 1080.15 216.98 1094.21 203.11C1108.46 189.24 1115.58 169.86 1115.58 144.97C1115.58 120.08 1108.46 100.7 1094.21 86.83C1080.15 72.96 1061.05 66.025 1036.92 66.025H999.301V223.915H1036.92Z" fill="#696969"/>
<path d="M1269.23 251.56C1250.04 251.56 1232.37 246.905 1216.22 237.595C1200.07 228.285 1187.25 215.46 1177.75 199.12C1168.25 182.78 1163.5 164.73 1163.5 144.97C1163.5 125.21 1168.25 107.16 1177.75 90.82C1187.25 74.48 1200.07 61.655 1216.22 52.345C1232.37 43.035 1250.04 38.38 1269.23 38.38C1284.24 38.38 1298.3 41.04 1311.41 46.36C1324.71 51.68 1335.64 59.185 1344.19 68.875L1326.8 86.26C1320.34 78.28 1312.08 72.2 1302.01 68.02C1291.94 63.65 1281.11 61.465 1269.52 61.465C1255.08 61.465 1241.59 64.98 1229.05 72.01C1216.7 78.85 1206.72 88.635 1199.12 101.365C1191.71 113.905 1188.01 128.44 1188.01 144.97C1188.01 161.5 1191.71 176.13 1199.12 188.86C1206.72 201.4 1216.79 211.185 1229.33 218.215C1241.87 225.055 1255.27 228.475 1269.52 228.475C1283.2 228.475 1294.6 226.385 1303.72 222.205C1313.03 217.835 1321.01 212.135 1327.66 205.105C1332.6 199.785 1336.59 193.42 1339.63 186.01C1342.67 178.41 1344.57 170.05 1345.33 160.93H1269.8V138.415H1367.84C1368.79 143.735 1369.27 148.675 1369.27 153.235C1369.27 165.775 1367.27 178.03 1363.28 190C1359.29 201.78 1352.93 212.135 1344.19 221.065C1325.38 241.395 1300.39 251.56 1269.23 251.56Z" fill="#696969"/>
</svg>
