<svg viewBox="0 0 553 274" fill="none" xmlns="http://www.w3.org/2000/svg">
<path d="M183.868 19.3647L35.133 102.403C15.9768 113.098 9.57645 137.057 20.8374 155.918C32.0984 174.779 56.7564 181.399 75.9126 170.704L224.648 87.6657C243.804 76.9708 250.204 53.0113 238.943 34.1505C227.683 15.2897 203.025 8.66986 183.868 19.3647Z" fill="#D95040"/>
<path d="M224.2 185.379L75.4649 102.341C56.3087 91.6465 31.6507 98.2663 20.3898 117.127C9.1288 135.988 15.5292 159.947 34.6854 170.642L183.421 253.68C202.577 264.375 227.235 257.755 238.496 238.895C249.757 220.034 243.356 196.074 224.2 185.379Z" fill="#5186EC"/>
<path d="M369.132 253.745L517.867 170.707C537.023 160.012 543.423 136.052 532.162 117.191C520.902 98.3307 496.244 91.7109 477.087 102.406L328.352 185.444C309.196 196.139 302.795 220.098 314.056 238.959C325.317 257.82 349.975 264.44 369.132 253.745Z" fill="#F2BD42"/>
<path d="M328.8 87.7291L477.535 170.767C496.691 181.462 521.349 174.842 532.61 155.981C543.871 137.121 537.471 113.161 518.315 102.466L369.579 19.4281C350.423 8.73332 325.765 15.3532 314.504 34.2139C303.243 53.0747 309.644 77.0343 328.8 87.7291Z" fill="#479A5F"/>
</svg>
