<svg width="1323" height="212" viewBox="0 0 1323 212" fill="none" xmlns="http://www.w3.org/2000/svg">
<path d="M54.6048 211.56C37.1248 211.56 23.7297 206.43 14.4197 196.17C5.29974 185.91 0.739746 171.565 0.739746 153.135V61.65H24.9648V149.43C24.9648 163.3 28.0998 173.465 34.3698 179.925C40.6398 186.385 49.0947 189.615 59.7347 189.615C67.9047 189.615 75.1247 187.43 81.3947 183.06C87.8547 178.69 92.7947 172.99 96.2147 165.96C99.8247 158.93 101.63 151.52 101.63 143.73V61.65H125.855V207H102.77V185.91H101.63C97.6397 193.13 91.2747 199.21 82.5347 204.15C73.7947 209.09 64.4848 211.56 54.6048 211.56Z" fill="#696969"/>
<path d="M172.466 34.86C167.716 34.86 163.631 33.15 160.211 29.73C156.791 26.31 155.081 22.225 155.081 17.475C155.081 12.725 156.791 8.735 160.211 5.505C163.631 2.085 167.716 0.375 172.466 0.375C177.216 0.375 181.301 2.085 184.721 5.505C188.141 8.735 189.851 12.725 189.851 17.475C189.851 22.225 188.141 26.31 184.721 29.73C181.491 33.15 177.406 34.86 172.466 34.86ZM160.496 61.65H184.436V207H160.496V61.65Z" fill="#696969"/>
<path d="M211.678 186.195L297.463 83.595H214.243V61.65H327.103V82.455L241.033 185.055H329.383V207H211.678V186.195Z" fill="#696969"/>
<path d="M478.93 211.56C466.01 211.56 454.23 208.235 443.59 201.585C433.14 194.935 424.875 185.815 418.795 174.225C412.715 162.445 409.675 149.145 409.675 134.325C409.675 119.695 412.715 106.49 418.795 94.71C424.875 82.93 433.14 73.715 443.59 67.065C454.23 60.415 466.01 57.09 478.93 57.09C490.14 57.09 500.115 59.655 508.855 64.785C517.595 69.725 524.245 75.9 528.805 83.31H529.945L528.805 63.075V2.94H553.03V207H529.945V185.625H528.805C524.245 192.845 517.595 199.02 508.855 204.15C500.115 209.09 490.14 211.56 478.93 211.56ZM481.78 189.615C490.33 189.615 498.215 187.335 505.435 182.775C512.845 178.215 518.735 171.755 523.105 163.395C527.665 155.035 529.945 145.345 529.945 134.325C529.945 123.305 527.665 113.615 523.105 105.255C518.735 96.895 512.845 90.435 505.435 85.875C498.215 81.315 490.33 79.035 481.78 79.035C473.42 79.035 465.535 81.315 458.125 85.875C450.715 90.435 444.73 96.99 440.17 105.54C435.8 113.9 433.615 123.495 433.615 134.325C433.615 145.155 435.8 154.845 440.17 163.395C444.73 171.755 450.715 178.215 458.125 182.775C465.535 187.335 473.42 189.615 481.78 189.615Z" fill="#696969"/>
<path d="M648.698 211.56C634.828 211.56 622.383 208.235 611.363 201.585C600.343 194.935 591.698 185.815 585.428 174.225C579.348 162.445 576.308 149.24 576.308 134.61C576.308 120.55 579.158 107.63 584.858 95.85C590.748 84.07 599.013 74.665 609.653 67.635C620.293 60.605 632.643 57.09 646.703 57.09C660.953 57.09 673.303 60.32 683.753 66.78C694.203 73.05 702.183 81.79 707.693 93C713.393 104.21 716.243 117.035 716.243 131.475C716.243 134.325 715.958 136.795 715.388 138.885H600.533C601.103 149.905 603.763 159.215 608.513 166.815C613.263 174.415 619.248 180.115 626.468 183.915C633.878 187.715 641.573 189.615 649.553 189.615C668.173 189.615 682.518 180.875 692.588 163.395L713.108 173.37C706.838 185.15 698.288 194.46 687.458 201.3C676.818 208.14 663.898 211.56 648.698 211.56ZM690.593 118.935C690.213 112.855 688.503 106.775 685.463 100.695C682.423 94.615 677.578 89.485 670.928 85.305C664.468 81.125 656.298 79.035 646.418 79.035C635.018 79.035 625.328 82.74 617.348 90.15C609.558 97.37 604.428 106.965 601.958 118.935H690.593Z" fill="#696969"/>
<path d="M1010.33 211.56C996.078 211.56 983.253 208.14 971.853 201.3C960.453 194.46 951.523 185.15 945.063 173.37C938.793 161.59 935.658 148.575 935.658 134.325C935.658 120.075 938.793 107.06 945.063 95.28C951.523 83.5 960.453 74.19 971.853 67.35C983.253 60.51 996.078 57.09 1010.33 57.09C1024.58 57.09 1037.4 60.51 1048.8 67.35C1060.2 74.19 1069.04 83.5 1075.31 95.28C1081.77 107.06 1085 120.075 1085 134.325C1085 148.575 1081.77 161.59 1075.31 173.37C1069.04 185.15 1060.2 194.46 1048.8 201.3C1037.4 208.14 1024.58 211.56 1010.33 211.56ZM1010.33 189.615C1019.26 189.615 1027.52 187.43 1035.12 183.06C1042.91 178.5 1049.09 172.04 1053.65 163.68C1058.4 155.32 1060.77 145.535 1060.77 134.325C1060.77 123.115 1058.4 113.33 1053.65 104.97C1049.09 96.61 1042.91 90.245 1035.12 85.875C1027.52 81.315 1019.26 79.035 1010.33 79.035C1001.4 79.035 993.038 81.315 985.248 85.875C977.458 90.245 971.188 96.61 966.438 104.97C961.878 113.33 959.598 123.115 959.598 134.325C959.598 145.535 961.878 155.32 966.438 163.68C971.188 172.04 977.458 178.5 985.248 183.06C993.038 187.43 1001.4 189.615 1010.33 189.615Z" fill="#696969"/>
<path d="M1106.92 61.65H1130.01V85.02H1131.15C1134 77.04 1139.51 70.485 1147.68 65.355C1155.85 60.035 1164.4 57.375 1173.33 57.375C1179.98 57.375 1185.68 58.325 1190.43 60.225V86.445C1184.35 83.405 1177.51 81.885 1169.91 81.885C1162.88 81.885 1156.42 83.88 1150.53 87.87C1144.64 91.86 1139.89 97.275 1136.28 104.115C1132.86 110.765 1131.15 117.985 1131.15 125.775V207H1106.92V61.65Z" fill="#696969"/>
<path d="M1251.27 211.56C1240.63 211.56 1231.13 209.47 1222.77 205.29C1214.41 201.11 1207.95 195.41 1203.39 188.19C1198.83 180.78 1196.55 172.42 1196.55 163.11C1196.55 147.72 1202.34 135.75 1213.93 127.2C1225.52 118.46 1240.15 114.09 1257.82 114.09C1266.56 114.09 1274.64 115.04 1282.05 116.94C1289.65 118.84 1295.44 121.025 1299.43 123.495V114.66C1299.43 103.83 1295.63 95.185 1288.03 88.725C1280.43 82.075 1270.84 78.75 1259.25 78.75C1251.08 78.75 1243.57 80.555 1236.73 84.165C1229.89 87.585 1224.48 92.43 1220.49 98.7L1202.25 85.02C1207.95 76.28 1215.74 69.44 1225.62 64.5C1235.69 59.56 1246.8 57.09 1258.96 57.09C1278.72 57.09 1294.21 62.315 1305.42 72.765C1316.82 83.025 1322.52 97.085 1322.52 114.945V207H1299.43V186.195H1298.29C1294.11 193.225 1287.84 199.21 1279.48 204.15C1271.12 209.09 1261.72 211.56 1251.27 211.56ZM1253.55 190.185C1261.72 190.185 1269.32 188.095 1276.35 183.915C1283.38 179.735 1288.98 174.13 1293.16 167.1C1297.34 160.07 1299.43 152.375 1299.43 144.015C1294.87 140.975 1289.27 138.505 1282.62 136.605C1275.97 134.705 1268.94 133.755 1261.53 133.755C1248.23 133.755 1238.16 136.51 1231.32 142.02C1224.67 147.53 1221.34 154.655 1221.34 163.395C1221.34 171.375 1224.38 177.835 1230.46 182.775C1236.54 187.715 1244.24 190.185 1253.55 190.185Z" fill="#696969"/>
</svg>
